Coordinates
version=1
nRows=14
nColumns=24
inDegrees=yes

Units are S.I. units (second, meters, Newtons, ...)
Angles are in degrees.

endheader
time	pelvis_tilt	pelvis_list	pelvis_rotation	pelvis_tx	pelvis_ty	pelvis_tz	hip_flexion_r	hip_adduction_r	hip_rotation_r	knee_angle_r	ankle_angle_r	subtalar_angle_r	mtp_angle_r	hip_flexion_l	hip_adduction_l	hip_rotation_l	knee_angle_l	ankle_angle_l	subtalar_angle_l	mtp_angle_l	lumbar_extension	lumbar_bending	lumbar_rotation
      0.50400000	      1.12658738	      4.53186798	      0.85436069	     -0.75593216	      1.00675705	      0.25391076	     21.30675064	     -2.37197571	     -4.74936136	     -6.51387467	      6.30378051	     -8.81423440	      7.80365054	    -14.77495313	      8.55157394	      7.47472332	     -7.00490093	     10.43790543	    -15.60390270	      2.84277454	     -5.29003765	     -6.33700503	     -2.69184797
      0.50816667	      1.19528845	      4.52345972	      0.91119830	     -0.75021756	      1.00635842	      0.25398193	     21.14912581	     -2.29093189	     -4.50373917	     -6.66278204	      6.33576821	     -9.09873880	      7.80513809	    -14.87794320	      8.52887971	      7.39216250	     -7.65668987	     10.56550372	    -15.35741347	      2.89947195	     -5.32143386	     -6.30155090	     -2.74549897
      0.51233333	      1.25590810	      4.52597324	      0.96673334	     -0.74447860	      1.00596820	      0.25400324	     21.02928775	     -2.23402783	     -4.32369061	     -6.93274378	      6.39356233	     -9.25350022	      7.81334092	    -14.95661975	      8.52676359	      7.36743064	     -8.34108004	     10.68815488	    -15.22130160	      2.94074418	     -5.33241544	     -6.25452009	     -2.78513434
      0.51650000	      1.29173295	      4.49558184	      1.02640120	     -0.73867887	      1.00559354	      0.25408950	     20.88432119	     -2.13193329	     -4.04930807	     -7.14827409	      6.30090668	     -9.55145915	      7.84525543	    -14.93031207	      8.46629849	      7.08722205	     -9.17323782	     10.83992546	    -14.65741969	      3.06514171	     -5.31965470	     -6.19063480	     -2.87398298
      0.52066667	      1.34454052	      4.48185347	      1.07959663	     -0.73286519	      1.00526187	      0.25416177	     20.73051266	     -2.05207827	     -3.78676477	     -7.43038766	      6.22998085	     -9.79880550	      7.89339728	    -14.91186116	      8.43096482	      6.89456585	    -10.02968334	     10.95478572	    -14.24041253	      3.22119561	     -5.31635489	     -6.13828295	     -2.90472491
      0.52483333	      1.40175291	      4.47150312	      1.13343734	     -0.72702941	      1.00496760	      0.25424455	     20.56130710	     -1.97643655	     -3.50088578	     -7.73096047	      6.11827063	    -10.06848988	      7.95353482	    -14.86474435	      8.39268609	      6.66106386	    -10.94516253	     11.03957862	    -13.78711470	      3.40678158	     -5.31432810	     -6.09024002	     -2.94023059
      0.52900000	      1.45645314	      4.45662854	      1.17935605	     -0.72117899	      1.00469025	      0.25433878	     20.39574337	     -1.89598235	     -3.21096865	     -8.06609834	      5.95927362	    -10.34464960	      8.02483280	    -14.77555676	      8.34771749	      6.39617513	    -11.93641806	     11.11018489	    -13.28796215	      3.62320586	     -5.30980152	     -6.03450037	     -2.95551933
      0.53316667	      1.50753465	      4.43574806	      1.22418767	     -0.71529853	      1.00444027	      0.25443782	     20.22867934	     -1.81203307	     -2.93238317	     -8.42058168	      5.74772847	    -10.61932826	      8.11187453	    -14.64098158	      8.28833999	      6.07183769	    -13.00395356	     11.15051446	    -12.72262603	      3.89291271	     -5.29416938	     -5.96462193	     -2.96364629
      0.53733333	      1.53899143	      4.41811361	      1.26633135	     -0.70941220	      1.00419235	      0.25454973	     20.08331012	     -1.73278114	     -2.64486174	     -8.79812705	      5.50513323	    -10.90347873	      8.20603914	    -14.44126100	      8.22620789	      5.71117850	    -14.14673063	     11.15252757	    -12.11790234	      4.20090881	     -5.25199768	     -5.90493349	     -2.96044807
      0.54150000	      1.63661126	      4.38354782	      1.27535264	     -0.70351183	      1.00404134	      0.25470832	     19.86761019	     -1.62994174	     -2.35519532	     -9.18877800	      5.20739292	    -11.20785291	      9.97366389	    -14.28462684	      8.13706222	      5.26196469	    -15.32108734	     11.00923689	    -11.56540294	     10.35285695	     -5.29208536	     -5.80999785	     -2.92205957
      0.54566667	      1.64837158	      4.36601877	      1.34154954	     -0.69761874	      1.00382191	      0.25479951	     19.74837099	     -1.56991675	     -2.15317803	     -9.61857338	      4.92830648	    -11.43832429	      9.95794419	    -13.97235213	      8.05287582	      4.87120049	    -16.63311818	     10.94367953	    -10.87876505	     10.42958664	     -5.22164377	     -5.75338050	     -2.92561058
      0.54983333	      1.69610482	      4.33366434	      1.37473859	     -0.69173273	      1.00366198	      0.25496637	     19.59202416	     -1.48324591	     -1.91567771	    -10.05523018	      4.62501137	    -11.70107611	      9.95186071	    -13.65583375	      7.93930531	      4.37243982	    -18.00706730	     10.82168695	    -10.11638799	     10.56768829	     -5.19919466	     -5.67054693	     -2.88973099
      0.55400000	      1.73945984	      4.29324755	      1.41183522	     -0.68585027	      1.00352110	      0.25513107	     19.44176919	     -1.39500851	     -1.70741976	    -10.50580629	      4.31803898	    -11.93945157	      9.95178547	    -13.29023722	      7.80443504	      3.85512465	    -19.45675054	     10.64666878	     -9.34497155	     10.76772619	     -5.17017914	     -5.58178335	     -2.84773405
      0.55816667	      1.77955934	      4.25142415	      1.44757779	     -0.67999062	      1.00339372	      0.25530857	     19.30512247	     -1.31035332	     -1.52879406	    -10.98303161	      4.01922377	    -12.15551919	      9.95391565	    -12.87405868	      7.65460540	      3.31566981	    -20.97973634	     10.40783023	     -8.56018076	     11.01968634	     -5.13813675	     -5.49067823	     -2.79871214
